# xmcd
#
# Track frame offsets:
#        150
#        24280
#        39092
#        54647
#        73410
#        89610
#        109935
#        130345
#        147295
#        173515
#        193370
#        214895
#        231935
#        247967
#        265035
#        285872
#        304350
#        324732
#
# Disc length: 4562 seconds
#
# Revision: 0
# Processed by: cddbd v1.5.1PL0 Copyright (c) Steve Scherf et al.
# Submitted via: ExactAudioCopy v0.95a3
#
DISCID=0c11d012
DTITLE=Various Artist - CELEB
DYEAR=1900
DGENRE=
TTITLE0=There Must Be An Angel
TTITLE1=Lovefool
TTITLE2=Kiss Me
TTITLE3=Baby  You Belong
TTITLE4=Alfie
TTITLE5=Take A Brow
TTITLE6=Have You Ever?
TTITLE7=Song Of Bernadette
TTITLE8=Super Woman
TTITLE9=Sweet Love
TTITLE10=Through the fire
TTITLE11=Breakout
TTITLE12=Dream OnDreamer
TTITLE13=Runaway
TTITLE14=Constant Craving
TTITLE15=I Dont Want To Wait
TTITLE16=Standing Still
TTITLE17=Miss You Like Crazy
EXTD=
EXTT0=
EXTT1=
EXTT2=
EXTT3=
EXTT4=
EXTT5=
EXTT6=
EXTT7=
EXTT8=
EXTT9=
EXTT10=
EXTT11=
EXTT12=
EXTT13=
EXTT14=
EXTT15=
EXTT16=
EXTT17=
PLAYORDER=
